<svg xmlns="http://www.w3.org/2000/svg" viewBox="0 0 925.8 386.03"><defs><style>.cls-1{fill:#f8e000;}.cls-2{fill:#8ab458;}.cls-3{fill:#810074;}.cls-4{fill:#348cc4;}.cls-5{fill:#c12b35;}.cls-6{fill:#fede0e;}.cls-7{fill:#065aa3;}.cls-8{fill:#008652;}.cls-9{fill:#bb1b2c;}.cls-10{fill:#7c7c7c;}</style></defs><title>logo</title><g id="Layer_3" data-name="Layer 3"><path class="cls-1" d="M118.26,85.23c-3.2-.8-6.8-.5-11.4,1.4-14.6,6.2-8.6,19.5-13,31.2-13.4,5.7-25.9-.9-32.4,15.1a16.07,16.07,0,0,0-1.2,9.6c-2.3,2.5-4,6-4.7,11.8-2,16.3,10.6,17.4,19.6,27.5-3.5,16.3-13,21.3-2.1,35.3,2.8,3.6,5.6,5.6,8.6,6.6.9,3,3,6,6.8,8.9,13.4,10.2,20.8-1.1,34.6-3.4,10.9,8.8,11.8,22.2,28.5,20,4.8-.7,8-2.2,10.3-4.4,3,.6,6.5.3,10.8-1.5,15.4-6.5,9.6-18.4,14.2-31.4,13.2-5.1,25.3.9,31.7-14.8,1.9-4.6,2.1-8.3,1.3-11.4,2-2.3,3.5-5.5,4.1-10.1,2.1-16.5-11-17.5-19.9-27.9,2.2-13.9,13.4-21.4,3.1-34.7-3.1-4-6.1-5.9-9.2-6.8-.9-3-3-5.9-6.8-8.8-13.3-10.1-20.7.9-34.3,3.3-10.7-8.8-11.7-22-28.3-19.8-4.8.6-8,2.2-10.3,4.3"/><path class="cls-2" d="M236,108.63c0-4.8-4.2-16-8.5-16-6.4,0-43.6,57.4-80.4,57.4-7,0-10.2-12.4-10.2-56.6,0-20.1,1.7-43.2,2.7-54.6.3-3.7-2-7.5-4.3-9.3-4.3-3.1-9.9-7.4-13.6-7.8-4.8-.4-8.2,3.2-8.2,20.7,0,65,12.9,116.9,30.7,116.9,36.2,0,91.8-41.1,91.8-50.7"/><path class="cls-2" d="M153.56,117.13c-1.7,5.3,1.1,8.5,6.2,7.7l9.3-1.5a9.35,9.35,0,0,0,6.6-5.6l3.4-10.8a9.06,9.06,0,0,0-2.2-8.3l-6.8-6.5c-3.7-3.6-7.8-2.6-9.5,2.8Z"/><path class="cls-3" d="M137.86,195.53c0,14.8,4.9,40.6,12.3,70.9,8.9,36.2,15.8,43.1,21.6,40.5,3.3-1.5,7.2-7.5,10.1-12a11.26,11.26,0,0,0,.9-10.2c-6-13-34.6-69.6-34.6-99.1,0-8.5,1.5-10.5,11.3-10.5,44.9,0,77.1,27.9,86.1,27.9,2.9,0,5.2-3.7,5.2-12.4a14.11,14.11,0,0,0-1.1-5.9c-3.3-7.2-58.3-19.4-81.7-19.4-26.1.1-30.1,3.3-30.1,30.2"/><path class="cls-3" d="M168.86,204.23c-3.4-4.5-1.8-8.4,3.3-9.3l9.2-1.7a9.35,9.35,0,0,1,8.1,3l6.8,9a9,9,0,0,1,.7,8.6l-4.2,8.4c-2.3,4.6-6.5,5.1-9.8.6Z"/><path class="cls-4" d="M46.76,110.73c-7.1,0-14.1,9.8-14.1,14.8,0,6.3,12.2,3.6,45.9,15.5,21.8,7.7,45.9,16.4,45.9,27.2,0,14.7-17.9,28.3-32.7,38.5-29.4,20.1-47,12.5-47,19.6,0,5.7,8,14,13.9,14,23.9,0,75.6-43.2,75.6-70.8,0-23.8-73.3-58.8-87.5-58.8"/><path class="cls-4" d="M96.26,177.13c5.4-1.4,6.6-5.5,3.2-9.4l-6.2-7a9.1,9.1,0,0,0-8.2-2.6l-11,2.9a9.12,9.12,0,0,0-5.9,6.3l-1.9,9.2c-1.1,5.1,2,8,7.4,6.6Z"/><path class="cls-4" d="M342.82,239.27c-3.58,0-11.28,5-31.33,5-7.44,0-15-1.33-15-4,0-12.22,49.12-27.49,49.12-49.52,0-13.95-4.52-24-30.54-24-24.16,0-31.33,11.56-31.33,27.75,0,4.38,1.46,6.64,4.51,6.64a8.59,8.59,0,0,0,8.9-8.63c0-6.77,3.05-13.28,19.91-13.28,9.43,0,15.4,3.59,15.4,9.56,0,17.66-49.25,29.74-49.25,48.33,0,14.87,8.5,19.65,33.46,19.65,16.06,0,33.45-5.58,33.45-8.5,0-2.65-4.11-9-7.3-9"/><path class="cls-4" d="M422,208.47c0-31.73-5.05-41.69-32.26-41.69s-32.27,6.11-32.27,48.46c0,32,5.58,41.69,32.4,41.69S422,247.37,422,208.47m-51.12,6.64c0-32,2.13-35.85,20.05-35.85,14.21,0,17.53,7.44,17.53,29.61,0,31.2-4.12,35.45-19.92,35.45-12.35,0-17.66-7.83-17.66-29.21"/><path class="cls-4" d="M472.13,215.78c0-23.24,2.53-32.93,2.53-38.51s-2.79-9.42-6-9.42c-4.64,0-6.5.93-12.61,5.57-8.63,6.77-14.47,11.42-20.84,16.47-3.72,3.18-5.58,4.24-5.58,5.44,0,2.39,4.91,6.77,7.83,6.77,3.72,0,17.26-13.28,23.1-17.52-.79,4.91-1.85,18.45-1.85,31.86,0,35.05,2.52,39.17,5.84,39.17s10.22-4.25,10.22-7.71c.13-4.77-2.66-5.57-2.66-32.12"/><path class="cls-4" d="M549.27,207.94c0-35.84-9.16-41.16-32.66-41.16-18.85,0-31.33,2.93-31.33,30.67,0,14.74,4.51,23.9,28.41,23.9,11.15,0,16.46-.93,16.46-4.78,0-4.91-4-7.57-8-7.57-19.12,0-23.63-1.32-23.63-14.47,0-11,4.91-15.4,19.25-15.4,13.41,0,18.05,3.45,18.05,29.34,0,29.21-5.57,35.85-17.26,35.85-8.63,0-16.06-1.19-21.51-1.19-5.7,0-9.42,4.91-9.42,7.83s1.19,6,24.83,6c12.87,0,21.77-1.72,27.74-7.43,9.56-9.3,9-23.24,9-41.56"/><path class="cls-5" d="M353,151.65c-3.05,0-5.84-3.85-5.84-38,0-38.5,2.92-39.83,5.84-39.83s9,3.72,9,6.77c0,3.32-1.72,11-1.72,32.79,0,22.57,1.72,24,1.72,31.47,0,3.05-6,6.77-9,6.77m-22.83-13.14c-4,0-8.63,1.06-17.53,1.06-3.71,0-12.88-.53-15.93-1.46-.8-5.45-.93-13.55-.93-26.29,0-21.64,1.59-24.16,1.59-31.73,0-3.06-6.5-6.77-9.69-6.77-2.92,0-4.51,2.52-4.51,36.64,0,22.17.13,31.2,5,35.58,3.59,3.19,17.79,6.37,32,6.37s16.46-1.59,16.46-4.24c0-2.13-3.71-9.16-6.5-9.16m186.4-65.59c-21,0-24.16,2.65-24.16,5.31s3.18,8.36,8.36,8.36c4.91,0,11.82-1.06,19.52-1.06,12.61,0,15.93,3.59,15.93,30.41,0,6.77-1.06,15.93-2.92,20.84-2.12,3.32-5.58,3.45-12,3.45-13.67,0-16.46-2.79-16.46-12.08,0-7.3,1.06-7.3,17.52-7.3,4,0,8.77-4.52,8.77-8.9,0-3.18-3.59-4.78-14.21-4.78-20.05,0-25.09,5-25.09,18.32,0,19.39,6,27.09,28.41,27.09,4.25,0,17.26-.93,22-6.37,4.38-4.92,7-12.09,7-30.54,0-19-.53-29.47-6.9-35.32s-15-7.43-25.89-7.43m-66.12,0c-9.82,0-17.39,3.19-22.3,9.56-5.18-7.7-13.81-9.56-25.09-9.56-18.72,0-29.21,4.38-29.21,34.65,0,34.12,3.72,42.88,6.64,42.88s9-3.71,9-6.77-3.05-8.63-3.05-31.2c0-23.1,2.52-26.95,17.39-26.95,12.75,0,16.86,3.45,16.86,28.55,0,22.57-.26,25-.26,29.74,0,3.05,6,6.77,9,6.77s4.38-6.38,4.38-40.5v-.66c.26-20.18,3.18-23.77,17.39-23.77,12.75,0,16.86,3.46,16.86,28.55,0,22.57-1.72,22.3-1.72,29.74,0,3.05,6,6.77,9,6.77s5.85-6.37,5.85-40.49-11.42-37.31-30.81-37.31"/><path class="cls-6" d="M784.28,185.78c-5.45-10.39-15-2.74-27.3-2.74-11.6,0-20.18-25.17-32.66-18.8-12.49-6.37-21.07,18.8-32.68,18.8-12.28,0-21.84-7.65-27.29,2.74-6,1.71-8.12,6.17-8.12,10.64,0,11.83,10.57,12.1,30.25,24.33,21.21,13.2,24.82,37.79,37.84,37.79s16.62-24.59,37.83-37.79c19.69-12.23,30.25-12.5,30.25-24.33,0-4.47-2.17-8.93-8.12-10.64"/><path class="cls-7" d="M798.72,150.09c3.59-4.56,7.92-4,10.18.82l4.09,8.8a9.23,9.23,0,0,1-.94,8.85l-7.26,9.21a9.41,9.41,0,0,1-8.39,3l-9.51-2c-5.24-1.07-6.76-5.15-3.19-9.7Z"/><path class="cls-7" d="M750.52,192.28C750.45,206.11,758,217,772.57,217c25.32,0,78.6-10.48,93-18.5,2.72-1.51,3.85-2.38,3.85-4.29s-4.23-9-7.31-14c-1.57-2.56-3.39-4.33-6.74-4.33-5.2,0-39.59,31.91-80.71,31.91-8.06,0-13.16-5.25-13.16-14.44,0-15.49,6.65-25.12,19.12-52.14,1.9-4.11-7.67-17.75-12.6-17.75-2.3,0-17.37,37.93-17.51,68.8"/><path class="cls-8" d="M649.75,150.09c-3.58-4.56-7.91-4-10.18.82l-4.09,8.8a9.23,9.23,0,0,0,.94,8.85l7.27,9.21a9.38,9.38,0,0,0,8.38,3l9.52-2c5.22-1.07,6.76-5.15,3.18-9.7Z"/><path class="cls-8" d="M682.18,118.57c-4.94,0-14.51,13.64-12.61,17.75,12.47,27,17.37,41.57,17.37,57.06,0,9.19-5.1,14.44-13.17,14.44-41.11,0-75.5-31.91-80.7-31.91-3.35,0-5.17,1.76-6.73,4.32-3.09,5-7.32,12-7.32,14s1.13,2.78,3.85,4.29c14.41,8,67.69,18.5,93,18.5,14.57,0,22.12-10.91,22-24.74-.14-30.87-13.46-73.72-15.75-73.72"/><path class="cls-9" d="M717.21,124.06c.17-5.8,4-7.93,8.68-5.38l8.51,4.63a9.29,9.29,0,0,1,4.51,7.68l-.38,11.73a9.31,9.31,0,0,1-5,7.37l-8.81,4.08c-4.85,2.25-8.51-.13-8.33-5.91Z"/><path class="cls-9" d="M788.82,116.08c0-8.43-13-17.07-16.56-17.07-4.61,0-3.72,5.37-8.35,25.95-11.74,52.2-25.34,67.77-38.6,67.77-10.71,0-19.24-8.85-37.59-60.44-13.83-38.84-12.31-63.12-19.28-63.12C663.56,69.17,651,80.44,651,86c0,14.6,43,116.54,73.31,116.54,33.88,0,64.53-75.19,64.53-86.49"/></g><g id="Layer_4" data-name="Layer 4"><path class="cls-10" d="M57,344.22c0,6.12-1.73,8.75-7.89,8.75a14.68,14.68,0,0,1-4.1-.48l.67-3.78a20.06,20.06,0,0,0,2.69.19c3.18,0,3.76-1.31,3.76-4.68V330H57Z"/><path class="cls-10" d="M66.28,342.36c0,5,.74,6.51,4.5,6.51s4.39-1.86,4.39-6.48V330h4.91v12.41c0,7.41-2,10.58-9.24,10.58s-9.46-2.59-9.46-10.61V330h4.9Z"/><path class="cls-10" d="M99.64,333.86H89.18V339h9.5v3.66h-9.5v5.9H100v3.88H84.34V330h15.3Z"/><path class="cls-10" d="M120.62,330.27l-.45,3.72a47.37,47.37,0,0,0-6.84-.45c-3.75,0-5.32,1.76-5.32,7.31,0,6,1.06,7.83,5.13,7.83,1,0,1.73-.45,3.34-2.15v-3.18H113V340h8.24v12.48h-3.84l-.29-2.41c-2.44,2.34-3.79,3-5.46,3-7,0-8.78-3.14-8.78-12.25,0-8.43,3-11.29,9.68-11.29A31.64,31.64,0,0,1,120.62,330.27Z"/><path class="cls-10" d="M145.44,340.82c0,8.47-2.18,12.15-10.07,12.15s-10.3-3.14-10.3-12.25c0-8.47,3.27-11.32,10.3-11.29C141.69,329.43,145.44,332.51,145.44,340.82Zm-15.2.06c0,6.1.93,8,5.06,8s5-2.25,5-8c0-5.45-1.67-7.37-5-7.37C131.52,333.54,130.24,335.3,130.24,340.88Z"/><path class="cls-10" d="M164.78,330.27l-.42,3.68c-2.21-.16-5.26-.35-6.83-.35-2.21,0-3.72.42-3.72,2.53,0,1.26.55,1.71,1.92,2.06l5.71,1.7c2.44.74,4.4,2.47,4.4,6.54,0,5.13-3.59,6.48-7.38,6.54a68.24,68.24,0,0,1-10.17-1.12l.39-3.72a70.7,70.7,0,0,0,8.63.74c2.24,0,3.56-.35,3.56-2.41a2.31,2.31,0,0,0-1.93-2.53l-6.16-1.8c-2.66-.73-4.07-2.27-4.07-5.67,0-5.81,3.79-7,7.44-7A55.2,55.2,0,0,1,164.78,330.27Z"/><path class="cls-10" d="M186.91,330c5.48,0,7.34,2.34,7.34,7.44,0,4.62-2,7.25-7.41,7.25-2.3,0-3.75-.07-5.06-.16v7.92h-4.85V330Zm-5.13,3.75v7a33.47,33.47,0,0,0,3.91.2c2.85,0,3.88-1.22,3.88-3.56,0-2.63-.93-3.66-3.88-3.66Z"/><path class="cls-10" d="M215.71,352.43h-5.13l-1.7-5.13h-8l-1.67,5.13h-5.16L201.53,330h6.71Zm-13.82-9h6l-3-9.31Z"/><path class="cls-10" d="M237.55,352.43h-5.93l-8.47-15.88v15.88h-4.52V330h5.93l8.5,16V330h4.49Z"/><path class="cls-10" d="M262.12,352.43H257l-1.7-5.13h-8l-1.67,5.13h-5.16L247.94,330h6.71Zm-13.82-9h6l-3-9.31Z"/><path class="cls-10" d="M290.7,352.43h-4.4l-.74-16.58-5,13H275.2l-5-13-.74,16.55H265L266,330h6.64l5.2,14.82L283,330h6.67Z"/><path class="cls-10" d="M310.26,333.86H299.8V339h9.5v3.66h-9.5v5.9h10.81v3.88H295V330h15.3Z"/><path class="cls-10" d="M331.2,336.49c0,2.95-1.06,5-3.75,5.87a4.69,4.69,0,0,1,2.79,3.17l2.05,6.9h-5.13l-1.86-6.26a2.4,2.4,0,0,0-2.44-2H322c-1.58,0-2.35,0-3.24-.1v8.34h-4.85V330h10C329.34,330,331.2,332,331.2,336.49Zm-12.47-2.76v6.54a34,34,0,0,0,3.91.19c2.89,0,3.88-1.15,3.88-3.33,0-2.44-.9-3.4-3.85-3.4Z"/><path class="cls-10" d="M340.25,352.43H335.4V330h4.85Z"/><path class="cls-10" d="M360.93,330.39l-.35,3.47c-1.95-.16-3.66-.32-6.09-.32-3.69,0-5.07,1.76-5.07,7.34,0,6.1.93,8,5.07,8,2.79,0,3.88-.07,6.48-.26l.35,3.34a21.35,21.35,0,0,1-6.77,1c-8,0-10.29-3.14-10.29-12.25,0-8.47,3.27-11.32,10.29-11.29A21,21,0,0,1,360.93,330.39Z"/><path class="cls-10" d="M384.89,352.43h-5.13l-1.7-5.13h-8l-1.66,5.13h-5.17L370.72,330h6.7Zm-13.82-9h6l-3-9.31Z"/><path class="cls-10" d="M406.73,352.43H400.8l-8.47-15.88v15.88h-4.52V330h5.93l8.5,16V330h4.49Z"/><path class="cls-10" d="M431,340.82c0,8.47-2.18,12.15-10.07,12.15s-10.3-3.14-10.3-12.25c0-8.47,3.27-11.32,10.3-11.29C427.2,329.43,431,332.51,431,340.82Zm-15.2.06c0,6.1.92,8,5.06,8s5-2.25,5-8c0-5.45-1.66-7.37-5-7.37C417,333.54,415.75,335.3,415.75,340.88Z"/><path class="cls-10" d="M450.29,330.27l-.42,3.68c-2.21-.16-5.26-.35-6.83-.35-2.21,0-3.72.42-3.72,2.53,0,1.26.54,1.71,1.92,2.06l5.71,1.7c2.44.74,4.4,2.47,4.4,6.54,0,5.13-3.6,6.48-7.38,6.54a68.24,68.24,0,0,1-10.17-1.12l.39-3.72a70.73,70.73,0,0,0,8.62.74c2.25,0,3.56-.35,3.56-2.41a2.31,2.31,0,0,0-1.92-2.53l-6.16-1.8c-2.66-.73-4.07-2.27-4.07-5.67,0-5.81,3.78-7,7.44-7A55.32,55.32,0,0,1,450.29,330.27Z"/><path class="cls-10" d="M474.09,344.92v7.51h-4.85v-7.28L461.09,330h5.1l5.43,11L477,330h5.1Z"/><path class="cls-10" d="M503,330c5.49,0,7.35,2.34,7.35,7.44,0,4.62-2,7.25-7.41,7.25-2.31,0-3.75-.07-5.07-.16v7.92H493V330Zm-5.13,3.75v7a33.82,33.82,0,0,0,3.92.2c2.85,0,3.88-1.22,3.88-3.56,0-2.63-.93-3.66-3.88-3.66Z"/><path class="cls-10" d="M531.82,352.43h-5.14L525,347.3h-8l-1.67,5.13h-5.16L517.64,330h6.7Zm-13.83-9h6l-3-9.31Z"/><path class="cls-10" d="M552.21,336.49c0,2.95-1.05,5-3.75,5.87a4.69,4.69,0,0,1,2.79,3.17l2,6.9h-5.13l-1.86-6.26a2.4,2.4,0,0,0-2.44-2H543c-1.58,0-2.35,0-3.24-.1v8.34h-4.85V330h10C550.35,330,552.21,332,552.21,336.49Zm-12.47-2.76v6.54a34,34,0,0,0,3.91.19c2.89,0,3.88-1.15,3.88-3.33,0-2.44-.9-3.4-3.85-3.4Z"/><path class="cls-10" d="M576.72,352.43h-5.13l-1.71-5.13h-8l-1.67,5.13h-5.16L562.54,330h6.7Zm-13.83-9h6l-3-9.31Z"/><path class="cls-10" d="M589.77,330c5.48,0,7.34,2.34,7.34,7.44,0,4.62-2,7.25-7.4,7.25-2.31,0-3.76-.07-5.07-.16v7.92H579.8V330Zm-5.13,3.75v7a33.61,33.61,0,0,0,3.91.2c2.86,0,3.88-1.22,3.88-3.56,0-2.63-.93-3.66-3.88-3.66Z"/><path class="cls-10" d="M618.57,352.43h-5.13l-1.7-5.13h-8l-1.66,5.13h-5.17L604.39,330h6.71Zm-13.82-9h6l-3-9.31Z"/><path class="cls-10" d="M640.41,352.43h-5.93L626,336.55v15.88h-4.52V330h5.93l8.5,16V330h4.49Z"/><path class="cls-10" d="M665,352.43h-5.13l-1.7-5.13h-8l-1.67,5.13h-5.16L650.8,330h6.71Zm-13.82-9h6l-3-9.31Z"/><path class="cls-10" d="M693.56,352.43h-4.4l-.73-16.58-5,13h-5.32l-5-13-.74,16.55H667.9l1-22.45h6.64l5.2,14.82L685.89,330h6.67Z"/><path class="cls-10" d="M713.12,333.86H702.66V339h9.5v3.66h-9.5v5.9h10.81v3.88H697.82V330h15.3Z"/><path class="cls-10" d="M734.06,336.49c0,2.95-1,5-3.75,5.87a4.69,4.69,0,0,1,2.79,3.17l2,6.9H730l-1.86-6.26a2.4,2.4,0,0,0-2.44-2h-.89c-1.57,0-2.34,0-3.24-.1v8.34h-4.85V330h10C732.2,330,734.06,332,734.06,336.49Zm-12.47-2.76v6.54a34.15,34.15,0,0,0,3.91.19c2.89,0,3.88-1.15,3.88-3.33,0-2.44-.9-3.4-3.85-3.4Z"/><path class="cls-10" d="M743.11,352.43h-4.85V330h4.85Z"/><path class="cls-10" d="M763.8,330.39l-.36,3.47c-2-.16-3.65-.32-6.09-.32-3.69,0-5.07,1.76-5.07,7.34,0,6.1.93,8,5.07,8,2.79,0,3.88-.07,6.48-.26l.35,3.34a21.35,21.35,0,0,1-6.77,1c-8,0-10.29-3.14-10.29-12.25,0-8.47,3.27-11.32,10.29-11.29A21.14,21.14,0,0,1,763.8,330.39Z"/><path class="cls-10" d="M787.75,352.43h-5.13l-1.7-5.13h-8l-1.66,5.13H766.1L773.58,330h6.7Zm-13.82-9h6l-3-9.31Z"/><path class="cls-10" d="M809.59,352.43h-5.93l-8.47-15.88v15.88h-4.52V330h5.93l8.5,16V330h4.49Z"/><path class="cls-10" d="M833.81,340.82c0,8.47-2.18,12.15-10.07,12.15s-10.3-3.14-10.3-12.25c0-8.47,3.27-11.32,10.3-11.29C830.06,329.43,833.81,332.51,833.81,340.82Zm-15.2.06c0,6.1.93,8,5.06,8s5-2.25,5-8c0-5.45-1.67-7.37-5-7.37C819.89,333.54,818.61,335.3,818.61,340.88Z"/><path class="cls-10" d="M853.15,330.27l-.42,3.68c-2.21-.16-5.26-.35-6.83-.35-2.21,0-3.72.42-3.72,2.53,0,1.26.54,1.71,1.92,2.06l5.71,1.7c2.44.74,4.4,2.47,4.4,6.54,0,5.13-3.6,6.48-7.38,6.54a68.24,68.24,0,0,1-10.17-1.12l.39-3.72a70.73,70.73,0,0,0,8.62.74c2.25,0,3.57-.35,3.57-2.41a2.31,2.31,0,0,0-1.93-2.53l-6.16-1.8c-2.66-.73-4.07-2.27-4.07-5.67,0-5.81,3.78-7,7.44-7A55.2,55.2,0,0,1,853.15,330.27Z"/></g></svg>